<?xml version="1.0" encoding="utf-8"?>
<!-- Generator: Adobe Illustrator 16.0.0, SVG Export Plug-In . SVG Version: 6.00 Build 0)  -->
<!DOCTYPE svg PUBLIC "-//W3C//DTD SVG 1.1//EN" "http://www.w3.org/Graphics/SVG/1.1/DTD/svg11.dtd">
<svg version="1.1" id="Capa_1" xmlns="http://www.w3.org/2000/svg" xmlns:xlink="http://www.w3.org/1999/xlink" x="0px" y="0px"
	 width="861px" height="257px" viewBox="0 0 861 257" enable-background="new 0 0 861 257" xml:space="preserve">
<path fill="#E20613" d="M178.319,52.828c-4.214,4.61-13.42-0.393-23.619,10.994c-1.957,2.185,0.295,10.93-1.498,15.089
	c-2.697,6.254-9.498,12.442-13.27,16.666c3.036,5.676,9.328,22.463,9.328,22.463s-5.065,13.675-2.137,19.267l-32.973-13.984
	c0.281-0.055-13.132,13.521-40.243,40.725c4.143-36.961,6.132-55.891,5.984-56.729c-0.025-0.093-17.192-8.739-51.53-25.895
	l51.147-10.981c2.852-0.613,4.513-0.974,4.987-1.064c1.782-11.626,4.606-30.585,8.47-56.922
	c11.323,19.358,20.889,35.884,28.685,49.568c0.704,0.066,1.84,0.049,3.396-0.044C138.138,59.609,155.895,56.56,178.319,52.828"/>
<path fill-rule="evenodd" clip-rule="evenodd" d="M233.212,183.461c-0.098,0.49-7.053,6.867-7.461,6.983
	c-13.082,15.653,8.881,61.562,5.097,60.783c-3.981-0.821-8.017-1.392-12.032-2.055c-14.835-2.446-29.854-1.889-44.791-2.633
	c-10.232-0.51-20.499-0.071-30.739-0.689c-4.115-0.249-8.237-0.365-12.357-0.56c-1.793-0.087-3.795,0.887-5.229,0.305
	c-1.443-0.583-2.366-2.52-3.769-3.646c-4.011-3.223-7.942-6.547-11.962-9.757c-1.953-1.559-4.254-2.582-6.514-3.6
	c-4.085-1.838-6.953-4.803-8.969-8.768c-2.38-4.68-6.031-8.12-10.701-10.545c-2.889-1.499-5.591-3.261-7.625-5.938
	c-1.301-1.714-3.374-2.468-5.222-3.477c-0.666-0.363-0.709,0.067-0.886,0.461c-0.575,1.278-1.197,2.535-1.728,3.831
	c-0.3,0.734-0.685,1.027-1.536,1.08c-1.664,0.108-3.027-0.053-4.365-1.346c-1.947-1.877-4.682-2.082-7.223-2.586
	c-0.159-0.031-0.326-0.021-0.485-0.048c-3.141-0.532-3.141-0.532-4.595,2.239c-1.331,2.539-1.33,2.537-4.028,1.662
	c-0.447-0.146-0.899-0.282-1.523-0.475c0.129,0.79,0.228,1.418,0.333,2.044c0.329,1.982,0.331,1.981,2.286,1.32
	c0.967-0.33,1.934-0.655,3.06-1.035c-0.004,0.984-0.767,1.577-0.894,2.404c9.253-2.191,16.083,2.312,22.387,7.99
	c3.165,2.851,5.627,6.448,9.412,8.661c4.237,2.479,8.756,3.992,13.653,4.192c1.301,0.05,1.785,0.515,2,1.685
	c0.383,2.086,0.713,4.138,0.088,6.256c-0.39,1.32-1.188,1.909-2.481,2.197c-2.507,0.559-4.96,0.094-7.432-0.195
	c-1.993-0.231-3.991-0.387-5.994,0.15c1.478,2.334,2.595,2.722,11.426,4.289c-1.017,0-2.034-0.015-3.05,0.004
	c-1.031,0.018-2.059,0.078-3.089,0.107c-11.179,0.327-22.361,0.196-33.541,0.134c-0.972-0.006-1.348-0.337-1.438-1.259
	c-0.116-1.177-0.321-2.344-0.517-3.726c5.144,1.415,10.026,1.48,14.876-1.664c-2.702,0-5.076-0.054-7.447,0.018
	c-2.221,0.06-4.438,0.331-6.659,0.363c-1.83,0.025-2.919-1.355-3.848-2.648c-2.112-2.942-2.497-6.182-1.039-9.529
	c0.306-0.701,0.297-0.943-0.454-1.091c-2.675-0.525-3.118-2.285-2.876-4.727c0.413-4.159,0.338-8.346-0.01-12.518
	c-0.037-0.443-0.022-0.859,0.175-1.27c0.345-0.718,0.668-1.446,1-2.174c-0.69-0.298-1.38-0.598-2.194-0.948
	c1.959-0.839,3.897-1.328,5.832-1.74c1.015-0.215,0.975-0.559,0.617-1.275c-2.527-5.05-4.191-10.423-5.755-15.815
	c-1.142-3.941-1.899-7.992-2.987-11.951c-2.265-8.233-5.416-16.18-8.008-24.305c-4.705-14.75-9.381-29.514-14.68-44.063
	c-1.565-4.296-2.223-8.774-3.289-13.17c1.303-0.247,1.735-1.605,2.782-2.181c6.542,18.706,13.137,37.396,18.939,56.348
	c1.595,5.214,4.268,10.062,5.187,15.503c0.396,2.341,0.67,4.738,1.378,6.991c3.078,9.785,6.57,19.431,10.083,29.07
	c0.703,1.931,1.76,2.785,3.676,2.841c0.028,0.029,0.057,0.062,0.084,0.093c0.026-0.026,0.052-0.052,0.076-0.079
	c-0.061,0.01-0.121,0.021-0.182,0.03c0.507-0.329,0.078-0.709-0.014-0.984c-1.411-4.191-2.862-8.369-4.305-12.55
	c-3.464-10.04-7.687-19.831-9.847-30.299c-1.411-6.836-3.871-13.362-6.001-19.99c-4.956-15.411-10.082-30.763-15.477-46.028
	c0.077-0.608,0.329-0.528,0.737-0.237c0.954,0.683,1.697,1.564,2.413,2.476c-0.314,0.794,0.231,1.427,0.449,2.095
	c6.088,18.772,13.438,37.112,18.11,56.376c4.062,16.748,10.815,32.685,16.416,48.965c0.186,0.546,0.426,0.942,1.051,1.084
	c1.948,0.442,3.905,0.859,5.818,1.43c0.988,0.293,1.528,0.009,1.959-0.813c0.25-0.479,0.544-0.935,0.786-1.416
	c1.202-2.39,1.204-2.409,3.715-1.436c2.781,1.082,5.656,2.089,7.429,4.697c1.43,2.101,3.353,3.526,5.596,4.549
	c6.113,2.783,10.079,7.487,12.35,13.702c0.342,0.938,0.895,1.545,1.679,2.063c3.779,2.512,8.07,4.008,12.219,6.354
	c-1.03-4.104-2.491-7.751-4.048-11.36c-1.342-3.114-2.763-6.192-4.149-9.286c0.612-0.229,0.661,0.358,0.853,0.639
	c1.732,2.556,3.447,5.118,5.139,7.696c0.423,0.648,0.897,1.189,1.567,1.597c2.125,1.297,4.262,2.578,6.323,3.975
	c1.007,0.683,1.565,0.422,2.258-0.425c2.573-3.153,1.394-8.994-2.297-11.007c-2.705-1.473-5.415-2.941-8.177-4.3
	c-0.988-0.484-1.169-1.04-0.969-2.036c0.352-1.75,0.679-3.515,0.825-5.289c0.101-1.233,0.632-1.932,1.673-2.522
	c2.075-1.179,4.077-2.489,6.288-3.854c-2.763,0-5.245-0.011-7.727,0.008c-1.168,0.008-1.826,0.589-2.486,1.636
	c-1.55,2.46-1.934,5.232-2.614,7.931c-0.493,1.954-1.631,3.862-0.625,5.98c-1.101-1.11-1.418-2.594-1.823-4.008
	c-0.245-0.863-0.439-1.062-1.25-0.482c-1.981,1.416-3.99,2.802-6.059,4.082c-2.218,1.371-3.301,1.257-5.225-0.51
	c-2.67-2.453-4.927-5.29-7.55-8.111c2.667-0.847,5.141-1.635,7.614-2.422c0.17,0.201,0.34,0.397,0.511,0.596
	c-1.275,1.07-2.554,2.136-3.82,3.216c-0.359,0.309-0.758,0.581-0.255,1.161c1.191,1.381,2.588,2.516,4.472,2.084
	c4.729-1.084,9.072-3.127,13.09-5.838c0.46-0.308,1.133-0.761,0.803-1.423c-0.335-0.674-0.558-1.565-1.539-1.713
	c-4.512-0.686-8.443-2.881-12.484-4.793c-0.245-0.064-0.496-0.18-0.714,0.067c0.184,0.057,0.367,0.116,0.551,0.174
	c0.854,0.897,1.631,1.833,1.964,3.081c0.354,1.328-0.741,1.858-1.428,2.506c-0.572,0.539-0.99-0.333-1.387-0.644
	c-2.303-1.805-4.55-3.683-6.85-5.487c-0.498-0.394-0.723-0.698-0.411-1.317c0.977-1.943,2.294-3.539,4.361-4.379
	c4.06-1.648,7.818-0.751,10.805,2.132c1.953,1.885,4.242,2.9,6.52,4.068c3.18,1.63,3.184,1.584,5.536-1.136
	c0.734-0.852,1.293-2.091,2.447-2.284c3.562-0.601,7.121-1.514,10.783-0.866c3.971,0.703,7.587,2.454,11.305,3.896
	c1.308,0.507,2.255,1.462,2.649,2.885c0.61,2.197,2.088,3.629,4.142,4.478c1.858,0.768,3.568,1.775,5.176,2.964
	c-0.098,0.09-0.196,0.18-0.295,0.27c-0.809,0.172-1.697-0.495-2.462,0.273c-1.444,1.454-1.801,3.763-0.845,5.561
	c0.163,0.305,0.296,0.52,0.694,0.551c4.018,0.313,5.237-0.86,4.866-4.718c0.086-0.108,0.171-0.216,0.256-0.32
	c2.042,1.348,4.082,2.697,6.415,4.239c-5.103,1.163-9.782,2.268-14.482,3.272c-1.021,0.22-1.54,0.696-1.929,1.626
	c-0.911,2.181-1.931,4.317-2.906,6.471c0.093-2.353,0.191-4.698,0.273-7.046c0.013-0.371,0.091-0.888-0.109-1.09
	c-0.384-0.387-0.77,0.152-1.156,0.271c-0.3,0.093-0.633,0.261-0.824,0.5c-1.15,1.423-2.756,1.961-4.417,2.519
	c-3.7,1.242-5.274,5.91-3.136,9.054c1.226,1.803,2.56,1.735,3.952,0.07c1.497-1.793,3.093-3.554,5.44-4.315
	c-1.122,2.565-2.244,5.133-3.364,7.703c-0.237,0.542-0.582,1.051-0.559,1.677c0.155,4.172,0.101,8.361,0.701,12.502
	c0.453,3.114,0.549,3.056,3.688,3.03c1.03-0.009,1.407-0.272,1.435-1.358c0.117-4.501,0.331-9.003,0.501-13.504
	c0.016-0.423,0.13-1.035-0.282-1.19c-2.1-0.794-2.013-2.901-2.839-4.467c-0.398-0.756-0.132-1.077,0.498-1.382
	c1.46-0.71,2.86-1.582,4.378-2.127c4.179-1.496,7.083-4.226,8.771-8.335c0.359-0.874,0.668-1.896,1.566-2.458
	c0.516,1.569,0.582,3.583,1.604,4.395c1.088,0.865,2.943-0.405,4.496-0.501c0.159-0.008,0.311-0.099,0.47-0.128
	c2.513-0.475,5.028-0.947,7.725-1.456c-0.519,1.373-0.912,2.492-1.367,3.588c-0.255,0.612-0.209,0.966,0.494,1.209
	c1.227,0.428,2.424,0.937,3.627,1.428c0.515,0.211,0.918,0.323,0.935-0.474c0.029-1.463,0.054-2.931,0.153-4.39
	c0.048-0.714-0.388-1.03-0.885-1.188c-2.178-0.683-3.054-2.402-3.7-4.376c-0.505-1.539-1.035-3.081-1.693-4.559
	c-0.434-0.974-0.395-1.437,0.681-1.944c4.499-2.12,8.909-4.431,13.422-6.522c4.329-2.006,7.805-4.806,9.793-9.266
	c0.684-1.529,1.551-2.977,2.356-4.448c0.986-1.804,1.996-3.592,3.128-5.627c0.933,3.139,1.788,5.919,2.576,8.718
	c0.243,0.862,0.478,1.221,1.538,1c4.878-1.015,9.782-1.903,14.678-2.838c0.957-0.184,1.922-0.345,2.869-0.576
	c0.874-0.216,1.861-0.127,2.652-0.897c-6.944-2.025-13.813-3.986-20.342-7.09c-5.186-2.463-10.967-3.235-16.586-4.372
	c-3.919-0.792-7.778-2.063-11.731-2.472c-16.824-1.737-33.456-0.389-49.834,3.85c-4.857,1.256-9.606,2.703-13.978,5.405
	c-5.297,3.271-11.189,5.412-16.901,7.872c-5.944,2.562-11.784,5.249-16.217,10.21c-0.608,0.683-1.423,1.172-2.099,1.797
	c-0.676,0.624-1.08,0.552-1.322-0.359c-0.096-0.365-0.277-0.703-0.41-1.058c-4.439-11.771-8.44-23.699-12.324-35.662
	c-3.051-9.396-6.536-18.648-9.352-28.129c-1.665-5.604-2.259-11.457-4.161-16.997c-1.646-4.799-3.217-9.621-4.822-14.433
	c10.313,5.456,20.772,10.577,31.913,14.15c-1.044-1.036-2.341-1.564-3.657-2.067c-3.945-1.504-7.728-3.377-11.572-5.117
	c-4.628-2.093-9.031-4.653-13.756-6.56C35.708,98.226,34.23,97.39,33.281,96c-0.04-0.088-0.054-0.178-0.037-0.272
	c3.477,1.206,6.654,3.053,9.959,4.628c7.332,3.496,14.637,7.044,21.939,10.6c2.236,1.088,4.369,2.308,4.019,5.372
	c-0.028,0.248,0.137,0.521,0.217,0.778c0.54,1.756,0.989,3.509,0.789,5.391c-0.109,1.013,0.035,2.05,0.065,3.077
	c-0.096,0.076-0.19,0.153-0.286,0.229c-0.792,2.427-1.31,4.89-1.49,7.46c-0.265,3.78-0.76,7.548-1.153,11.321
	c-0.309,2.972-0.442,5.952-0.429,8.94c0.001,0.29-0.16,0.706,0.292,0.802c0.405,0.085,0.559-0.256,0.66-0.57
	c0.099-0.308,0.138-0.636,0.229-0.945c1.25-4.28,1.125-8.688,1.262-13.075c0.006-0.188-0.053-0.453,0.231-0.513
	c0.477,0.021,0.09,0.677,0.569,0.774c0.405-1.194,0.789-2.331,1.172-3.467c-0.677,4.9,1.421,9.606,1.048,14.45
	c-0.734-2.375-0.885-4.868-1.848-7.514c-0.287,5.51,0.289,10.694-0.389,15.845c-0.44,3.354-0.387,6.689-0.074,10.058
	c0.181,1.948,0.945,3.97-0.114,5.919c-0.115,0.214-0.062,0.494,0.182,0.508c1.805,0.102,1.127,1.654,1.539,2.61
	c0.468-0.156,0.198-1.077,0.886-0.913c0.628,0.15,0.515,0.739,0.577,1.206c0.077,0.581-0.119,1.203,0.261,1.739l-0.024-0.021
	c1.43,1.313,2.133,1.244,2.551-0.474c0.706-2.891,1.99-5.464,3.638-7.916c0.627-0.934,1.273-1.656,2.308-2.156
	c2.443-1.183,4.722-2.606,6.581-4.668c4.138-4.591,8.379-9.084,12.518-13.673c3.23-3.579,6.477-7.152,9.523-10.886
	c2.862-3.508,4.307-4.159,8.665-2.862c3.572,1.064,7.106,2.249,10.662,3.365c0.46,0.145,0.967,0.329,1.42,0.264
	c2.038-0.286,3.834,0.41,5.649,1.175c2.713,1.145,5.406,2.367,8.723,3.109c-1.025-0.954-1.693-1.654-2.56-2.169
	c0.31-0.033,0.55,0.078,0.801,0.113c2.051,0.288,3.749,1.965,5.987,1.509c0.478,1.011,0.956,2.019,1.435,3.025
	c-4.838-1.24-9.636-2.62-14.42-4.11c0.167,0.237,0.365,0.406,0.594,0.502c3.531,1.488,7.03,3.066,10.617,4.402
	c1.431,0.532,2.742,1.604,4.423,1.363c1.72,1.425,3.15,3.248,5.318,4.057c1.327,0.494,2.507,1.191,3.635,2.023
	c1.511,1.116,3.259,1.631,5.102,1.799c2.741,0.248,4.527-1.198,5.875-4.675c2.644,0.291,5.07,1.638,7.933,1.128
	c1.376-0.246,1.33-1.366,2.131-1.884c0.485-0.313-0.313-0.932-0.712-1.322c-0.812-0.798-0.152-1.231,0.442-1.628
	c0.743-0.491,0.635-0.884-0.067-1.275c-0.518-0.29-1.033-0.655-1.648-0.621c-1.519,0.085-2.809-0.73-4.232-1.005
	c-0.763-0.149-1.008-0.675-0.838-1.303c0.52-1.938-0.734-3.047-1.861-4.231c-0.418-1.58,0.082-3.13,0.16-4.693
	c0.374-7.42,1.241-14.797,2.137-22.17c0.129-1.055,0.495-1.361,1.53-1.23c2.958,0.375,5.92,0.726,8.89,0.972
	c1.281,0.106,2.025,0.255,1.506,1.85c-0.345,1.061-0.351,2.241-0.446,3.372c-0.833,9.831,0.334,19.344,4.631,28.333
	c2.194,4.59,5.619,7.65,10.805,8.357c1.878,0.255,3.514,0.927,5.005,2.087c1.299,1.011,2.827,1.644,4.438,1.897
	c5.267,0.835,10.214-0.099,14.84-2.8c1.753-1.022,3.347-2.277,5.189-3.626c-0.271,2.861-0.163,5.401,0.127,7.935
	c0.482,4.188,2.904,6.646,6.848,6.873c1.422,0.079,2.805-0.206,4.14-0.701c1.439-0.531,2.927-0.77,4.458-0.709
	c3.633,0.138,7.265,0.296,10.896,0.421c2.064,0.07,4.298-0.125,5.438-1.912c1.249-1.954,2.897-2.24,4.838-2.345
	c0.486-0.026,0.975-0.07,1.454-0.158c1.589-0.286,3.24-0.292,4.736-1.01c2.554-1.222,3.892-3.804,3.569-6.882
	c-0.284-2.711-1.47-3.928-4.588-4.626c-0.652-0.147-1.164-0.328-1.573-0.95c-0.678-1.036-1.746-1.591-2.963-1.815
	c-1.914-0.351-3.83-0.683-5.744-1.035c-2.798-0.512-2.858-0.517-2.843-3.34c0.018-3.034-0.654-6.063-0.16-9.092
	c1.985-12.178,3.94-24.364,6.048-36.521c0.856-4.93,1.075-10.009,3.277-14.666c0.562-1.188,0.713-2.615,0.375-3.987
	c-0.135-0.54-0.064-1.069,0.014-1.613c0.515-3.525-1.152-7.052-4.24-8.829c-1.115-0.641-2.521-0.881-3.471-1.685
	c-2.393-2.032-5.206-2.794-8.182-3.236c-4.223-0.625-7.121,0.877-8.853,4.656c-0.377,0.827-0.589,1.738-0.791,2.63
	c-0.425,1.86-0.791,3.733-1.25,5.939c-0.762-1.463-1.35-2.6-1.947-3.734c-2.069-3.938-4.974-6.923-9.378-8.19
	c-0.773-0.222-1.6-0.335-2.318-0.677c-5.08-2.409-10.21-2.064-15.322-0.221c-4.027,1.452-7.063,4.337-9.995,7.327
	c-0.089-0.124-0.177-0.247-0.267-0.374c0.837-1.393,1.537-2.842,1.601-4.504c0.018-0.484,0.3-0.781,0.552-1.132
	c3.401-4.741,1.976-9.65-3.561-11.625c-5.737-2.047-11.804-2.48-17.8-3.218c0.926-2.972,3.82-4.776,4.644-7.808
	c0.835,0.218,1.66,0.468,2.503,0.654c9.782,2.122,19.603,4.027,29.553,5.177c8.456,0.977,16.919,2.116,25.452,1.624
	c9.033-0.523,18.06-1.236,27.074-2.019c7.61-0.661,15.146-1.836,22.545-3.809c1.971-0.525,3.831-1.452,5.9-1.602v7.165
	c-0.541,0.768-0.288,1.649-0.266,2.46c0.065,2.655-0.365,5.331,0.266,7.967V76.18c-0.685,1.899-0.493,3.903-0.551,5.844
	c-0.628,21.811-1.015,43.626-1.159,65.448c-0.066,10.255-0.365,20.508-0.878,30.755c-0.051,0.972-0.423,1.318-1.227,1.536
	c-5.97,1.616-11.972,3.057-18.101,3.946c-4.119,0.597-8.26,0.922-12.387,1.375c-2.965,0.326-5.994-0.277-9.024,0.744
	 M207.268,238.946c3.91-0.285,7.89-0.606,11.874-0.839c0.845-0.049,0.801-0.464,0.793-1.031c-0.057-5.631,0.057-11.254,0.301-16.88
	c0.128-2.965,0.454-6.021-0.075-8.892c-0.808-4.37-1.315-8.665-0.565-13.066c0.08-0.468-0.104-0.717-0.651-0.904
	c-1.136-0.388-2.224-0.924-3.294-1.477c-3.004-1.546-5.977-3.154-8.985-4.691c-2.941-1.501-5.918-1.485-8.93-0.136
	c-5.452,2.443-10.448,5.685-15.553,8.743c-5.675,3.403-8.753,8.32-9.415,14.884c-0.952,9.452-1.124,18.952-1.974,28.408
	c-0.088,0.977,0.368,0.895,1.062,0.75c4.294-0.896,8.581-1.821,12.897-2.591c1.23-0.222,1.651-0.795,1.971-1.897
	c1.165-4.017,0.971-8.162,1.232-12.261c0.439-6.904,6.513-11.987,13.326-11.064c0.909,0.123,1.807,0.438,2.715,0.471
	c1.239,0.042,1.464,0.655,1.485,1.751c0.13,6.508,0.336,13.017,0.483,19.525C205.982,238.643,206.053,239.304,207.268,238.946
	 M164.803,220.241c-2.467-0.785-4.687-1.764-6.79-2.997c-1.995-1.17-3.992-1.121-6.028-0.064c-2.789,1.445-5.511,3.006-8.115,4.762
	c-2.116,1.426-3.538,3.365-3.931,5.921c-0.749,4.889-0.755,9.84-1.127,14.762c-0.038,0.495-0.004,0.823,0.652,0.783
	c1.994-0.128,3.99,0.118,5.999-0.276c1.134-0.225,1.533-0.715,1.723-1.729c0.321-1.717,0.391-3.445,0.437-5.183
	c0.121-4.333,3.378-6.949,7.636-6.233c1.051,0.18,1.529,0.496,1.515,1.727c-0.03,3.033,0.184,6.072,0.224,9.11
	c0.014,0.878,0.25,1.124,1.127,1.015c1.56-0.194,3.136-0.389,4.701-0.365c1.258,0.018,1.462-0.448,1.469-1.597
	c0.038-5.056-0.656-10.071-0.684-15.121C163.603,223.24,163.633,221.707,164.803,220.241 M115.313,228.546
	c-0.958,3.271,0.287,5.557,2.73,7.382c0.521,0.386,0.992,0.838,1.484,1.259c2.098,1.795,4.208,3.576,5.45,6.14
	c0.59,1.22,1.738,0.462,2.607,0.571c0.747,0.095,0.721-0.72,0.863-1.304c0.913-3.789-0.08-7.4-1.025-11.004
	c-0.405-1.541-0.123-3.694-1.369-4.464c-1.211-0.746-3.156-0.269-4.773-0.405c-0.841-0.07-1.159,0.15-1.117,1.043
	c0.069,1.474,0.019,2.956,0.019,4.811C118.346,231.055,116.857,229.824,115.313,228.546 M229.084,183.854
	c-0.194-0.173-0.332-0.404-0.5-0.429c-3.441-0.511-6.751-1.57-10.119-2.381c-0.904-0.218-1.293-0.226-1.588,0.751
	c-0.529,1.755-1.105,3.511-1.869,5.168c-0.458,0.996-0.144,1.327,0.69,1.601c1.959,0.642,3.813,1.502,5.513,2.677
	c0.63,0.436-0.285,0.437,0,0C223.016,188.479,226.316,185.701,229.084,183.854 M48.063,226.642c0.221,0.624,0.431,1.063,0.532,1.526
	c0.429,1.958,1.658,2.733,3.627,2.901c5.254,0.447,9.525-1.83,13.668-4.627C60.003,226.896,54.131,226.73,48.063,226.642
	 M125.377,191.075c-1.716,0.527-3.032,1.504-3.451,3.255c-0.766,3.196-0.703,6.443,0.038,9.635c0.35,1.511,0.976,2.959,2.613,3.904
	c0.272-4.509,0.55-8.868,0.79-13.229C125.43,193.512,125.377,192.376,125.377,191.075 M131.963,196.043
	c0.119-0.762-0.373-1.205-0.552-1.757c-0.442-1.363-1.027-1.34-2.016-0.43c-2.645,2.43-3.707,6.757-2.337,10.095
	c0.371,0.902,0.522,1.668-0.114,2.568c-0.63,0.888,0.257,1.505,0.846,1.763c0.643,0.284,0.512-0.538,0.647-0.928
	c0.16-0.457,0.342-0.909,0.485-1.371C129.95,202.638,130.971,199.288,131.963,196.043 M120.59,188.9
	c-0.724,0.218-1.266,0.47-1.829,0.533c-1.412,0.156-1.71,0.856-1.069,2.026c1.199,2.186,0.917,4.153-0.677,6.05
	c-0.618,0.734-0.963,1.691-1.547,2.463c-0.511,0.677-0.54,1.339-0.078,1.925c1.364,1.722,2.272,3.686,3.204,6.161
	C119.288,201.395,119.932,195.227,120.59,188.9 M45.891,214.229c4.666,4.622,12.7,4.518,14.646,1.515
	C55.766,214.674,50.86,215.089,45.891,214.229 M131.957,200.607c2.395,2.579,4.953,2.748,7.935,2.171
	C137.768,200.244,135.077,200.528,131.957,200.607 M114.681,231.915c-0.092-0.053-0.263-0.153-0.433-0.256
	c-0.05,0.135-0.173,0.303-0.132,0.399c0.049,0.109,0.234,0.201,0.373,0.221C114.613,232.301,114.807,232.26,114.681,231.915"/>
<path fill-rule="evenodd" clip-rule="evenodd" d="M3.627,56.96c1.391-2.985,3.921-4.66,6.837-5.841
	c1.397-0.566,2.846-1.013,4.292-1.444c2.137-0.637,3.29-0.111,4.127,1.935c0.489,1.196,0.805,2.462,1.238,3.681
	c0.286,0.804,0.528,1.637,1.217,2.453c4.165-5.4,10.276-7.495,16.2-9.993c4.432-1.868,8.941-3.464,13.482-5.027
	c4.678-1.611,8.996-4.139,13.819-5.457c3.907-1.067,7.815-2.121,11.757-3.05c0.405-0.096,0.853-0.016,1.279-0.018
	c-1.547,8.84-2.951,17.701-3.724,26.652c-0.025,0.281-0.139,0.532,0.203,0.643c0.303,0.099,0.534-0.062,0.643-0.338
	c0.134-0.347,0.279-0.705,0.326-1.073c0.444-3.43,0.797-6.876,1.318-10.298c0.825-5.434,1.444-10.905,2.731-16.264
	c0.202-0.007,0.404-0.017,0.608-0.025c0.09,3.943-1.357,7.671-1.564,11.603c-0.201,3.819-1.01,7.607-1.56,11.408
	c-0.201,1.393-0.18,2.881-0.692,4.152c-0.897,2.222-2.272,3.807-5.023,4.365c-2.753,0.555-5.46,1.548-8.234,2.186
	c-0.307,0.073-0.7,0.171-0.864,0.394c-0.889,1.222-2.254,1.441-3.562,1.72c-1.849,0.394-3.741,0.599-5.571,1.056
	c-1.242,0.31-2.58,0.392-3.878,1.133c1.077,0.216,1.966,0.393,2.856,0.57c0.029,0.175,0.057,0.347,0.086,0.521
	c-4.298,0.268-7.696,2.85-11.577,4.218c1.499-1.2,3.501-1.557,4.81-3.108c-0.594-0.233-1.029,0.037-1.494,0.16
	c-5.514,1.459-10.857,3.584-16.571,4.257c-0.237-0.659-0.471-1.321-0.711-1.98c-2.799-7.644-4.9-15.545-8.475-22.902
	c-1.288-2.654-1.257-2.671-3.794-1.412c-0.579,0.286-1.135,0.655-1.746,0.834c-0.987,0.297-1.024,0.894-0.824,1.745
	c0.493,2.112,1.302,4.117,1.962,6.169c0.666,2.077,1.344,4.166,0.875,6.831c-2.049-3.997-3.225-7.932-4.947-11.721
	c-2.072,2.191-2.301,2.807-1.726,4.218c0.956,2.349,1.951,4.683,2.835,7.06c1.978,5.322,3.661,10.73,4.464,16.378
	c-0.37,0.056-0.878,0.033-0.43,0.628c0.221,0.294,0.652,0.731,0.061,0.833c-0.656,0.114-0.974,0.231-0.84,0.927
	c-1.238-0.146,0.012,1.495-1.055,1.47c-2.655-8.831-6.142-17.38-8.92-26.171c-0.023-0.073-0.16-0.112-0.244-0.168V56.96z
	 M35.871,72.939c8.144,0.51,15.251-3.607,22.934-5.246C51.063,68.954,43.28,70.035,35.871,72.939 M54.411,67.099
	c3.781-0.004,7.051-0.599,10.43-1.219C61.365,65.676,58.013,65.61,54.411,67.099"/>
<path fill-rule="evenodd" clip-rule="evenodd" d="M303.008,60.545c-0.631-2.636-0.199-5.312-0.267-7.967
	c-0.021-0.811-0.274-1.692,0.267-2.46V60.545z"/>
<path fill-rule="evenodd" clip-rule="evenodd" d="M13.09,88c1.701,0.504,1.701,0.504,0.761,2.489
	C13.372,89.728,13.249,88.858,13.09,88"/>
<path fill-rule="evenodd" clip-rule="evenodd" d="M114.681,231.915c0.126,0.345-0.068,0.386-0.192,0.364
	c-0.139-0.02-0.324-0.111-0.373-0.221c-0.041-0.097,0.082-0.265,0.132-0.399C114.417,231.762,114.588,231.862,114.681,231.915"/>
<path fill-rule="evenodd" clip-rule="evenodd" d="M89.294,191.514c-0.184-0.057-0.367-0.116-0.551-0.173
	c0.218-0.248,0.469-0.132,0.714-0.067C89.415,191.361,89.359,191.439,89.294,191.514"/>
<path fill-rule="evenodd" clip-rule="evenodd" d="M56.056,200.015c0.061-0.009,0.121-0.02,0.182-0.028
	c-0.024,0.025-0.05,0.052-0.076,0.078c-0.027-0.03-0.056-0.063-0.084-0.094L56.056,200.015z"/>
<path fill-rule="evenodd" clip-rule="evenodd" d="M183.21,39.888c0.308,0.343,0.251,0.642-0.05,0.978
	c-0.756,0.846-1.475,1.723-2.224,2.575c-0.247,0.281-0.562,0.64-0.956,0.337c-0.452-0.346,0.254-0.612,0.148-1.036
	c-1.7,0.227-3.509,0.174-5.093,0.746c-2.613,0.943-5.041,0.849-7.78,0.445c-3.262-0.482-6.695,0.08-9.987,0.728
	c-6.577,1.297-13.29,1.607-19.866,2.872c-2.283,0.438-4.599,0.716-6.855,1.257c-1.764,0.423-3.411,0.135-5.085-0.293
	c-0.184-0.23-0.296-0.564-0.714-0.483c0.097,0.406,0.439,0.396,0.725,0.472c1.219,1.256,2.757,1.673,4.411,1.388
	c5.277-0.904,10.527-1.977,15.814-2.819c5.394-0.858,10.816-1.556,16.286-1.787c1.45-0.061,2.884-0.504,4.332-0.146
	c0.039-0.032,0.058-0.051,0.08-0.068c-0.035,0.009-0.07,0.02-0.106,0.024c-8.867,1.402-17.735,2.785-26.598,4.211
	c-3.097,0.5-6.174,1.119-9.264,1.664c-2.197,0.388-6.655-1.643-7.817-3.533c-0.252-0.408-0.65-0.808-0.092-1.257
	c0.396-0.315,0.115-0.592-0.043-0.832c-1.348-2.025-1.773-4.574-3.765-6.261c-0.793-0.67-1.263-1.745-1.814-2.678
	c-0.842-1.425-1.586-2.782-3.256-3.614c-1.538-0.767-2.063-2.661-2.927-4.131c0.351-0.021,0.704-0.043,1.055-0.064
	c0.841,0.264,0.908,1.297,1.651,1.656c-0.023,0.493,0.069,0.932,0.579,1.256c-0.102-0.464-0.188-0.862-0.274-1.259
	c0.872-0.084,0.989,0.677,1.281,1.195c0.597,1.061,1.155,2.144,2,3.037c0.042,0.109,0.086,0.219,0.129,0.328
	c0.011-0.037,0.043-0.087,0.03-0.105c-0.051-0.076-0.116-0.14-0.175-0.207c-0.426-2.109-1.702-3.885-2.301-5.928
	c1.052-0.016,2.103-0.03,3.147-0.048c0.836,0.018,1.679,0.031,2.522,0.048c4.715,0.128,9.448,0.048,14.14,0.443
	c4.736,0.397,9.422,1.34,14.147,1.91c10.898,1.314,21.308,4.595,31.742,7.783C181.358,38.99,182.271,39.486,183.21,39.888"/>
<path fill-rule="evenodd" clip-rule="evenodd" d="M114.689,28.556c0.599,2.043,1.874,3.819,2.301,5.928l0.016-0.016
	c-0.845-0.893-1.403-1.976-2-3.037c-0.292-0.518-0.409-1.279-1.281-1.195l0.021,0.025c0.072-0.201,0.061-0.381-0.134-0.512
	c-0.069,0.169-0.139,0.337-0.21,0.507l0.018-0.017c-0.743-0.359-0.81-1.392-1.651-1.656c-0.116-1.148-0.954-1.909-1.558-2.771
	c-2.333-3.344-5.001-6.437-7.299-9.813c-1.582-2.32-3.208-4.578-3.665-7.952c5.598,6.358,8.766,13.882,13.692,20.21
	c-0.285-1.404-1.309-2.543-1.579-4.305C112.746,25.583,113.4,27.3,114.689,28.556"/>
<path fill-rule="evenodd" clip-rule="evenodd" d="M120.358,28.556c-0.843-0.017-1.686-0.03-2.522-0.048
	C118.682,28.526,119.52,28.539,120.358,28.556"/>
<path fill-rule="evenodd" clip-rule="evenodd" d="M102.369,17.835c0.236,0.07,0.419,0.311,0.276,0.451
	c-0.31,0.305-0.4-0.079-0.532-0.273C102.211,17.971,102.296,17.912,102.369,17.835"/>
<path fill-rule="evenodd" clip-rule="evenodd" d="M102.078,17.47c0.097,0.122,0.194,0.243,0.291,0.365
	c-0.073,0.077-0.158,0.136-0.256,0.178c-0.081-0.076-0.161-0.152-0.24-0.229C101.941,17.679,102.009,17.574,102.078,17.47"/>
<path fill-rule="evenodd" clip-rule="evenodd" d="M79.372,33.521c0.491-2.34,0.983-4.682,1.476-7.023
	c0.018,2.396-0.115,4.747-0.868,6.998C79.776,33.504,79.574,33.514,79.372,33.521"/>
<path fill-rule="evenodd" clip-rule="evenodd" d="M109.703,28.566c1.778,2.969,3.555,5.94,5.338,8.907
	c0.273,0.454,0.414,1.013,0.966,1.255c0.038,0.136,0.075,0.273,0.113,0.407c0.055-0.045,0.11-0.09,0.165-0.134
	c-0.084-0.097-0.169-0.198-0.253-0.294c0.214-1.08-0.86-1.843-0.668-3.156c1.668,3.731,3.699,7.051,4.971,10.75
	c0.443,1.286,1.182,2.445,2.332,3.391c3.213,2.644,6.743,3.204,10.764,2.475c3.61-0.655,7.324-0.863,10.927-1.48
	c4.739-0.813,9.521-1.353,14.239-2.285c1.015-0.2,2.025-0.328,3.189-0.128c-0.78,1.067-1.985,1.12-2.997,1.392
	c-3.889,1.043-7.908,1.263-11.891,1.69c-5.198,0.555-10.427,0.837-15.566,1.855c0.023,0.585,0.682,0.263,0.942,0.857
	c-2.431,0.712-4.753,0.941-7.02-0.324c-2.937-1.641-5.155-3.961-5.987-7.279c-0.518-2.061-2.01-3.432-3.035-5.128
	c-2.428-4.029-4.844-8.062-7.257-12.097c-0.108-0.178-0.139-0.403-0.207-0.607C109.078,28.611,109.391,28.588,109.703,28.566"/>
<path fill-rule="evenodd" clip-rule="evenodd" d="M31.951,91.933c4.189,1.35,8.043,3.421,11.916,5.468
	c4.642,2.452,8.929,5.542,13.773,7.623c1.069,0.46,2.146,0.936,3.752,1.023c-1.815-1.058-3.29-1.916-4.766-2.775
	c0.047-0.097,0.091-0.194,0.136-0.289c1.041,0.434,2.1,0.832,3.122,1.308c2.152,1.006,4.569,1.558,6.446,3.021
	c5.617,4.375,7.033,7.254,5.102,13.853c-0.073,0.254-0.135,0.511-0.236,0.891c-0.199-1.335,0.2-2.505,0.233-3.691
	c0.115-4.075-1.634-7.071-5.339-8.854c-7.073-3.402-14.155-6.789-21.225-10.197c-4.001-1.93-7.989-3.888-11.976-5.843
	c-0.234-0.114-0.417-0.332-0.624-0.501C32.015,92.668,31.926,92.319,31.951,91.933"/>
<path fill-rule="evenodd" clip-rule="evenodd" d="M84.853,166.07c2.668-2.959,5.341-5.914,8.002-8.878
	c4.232-4.715,8.458-9.432,12.679-14.158c1.657-1.854,3.255-3.764,4.947-5.588c1.206-1.299,4.867-1.927,7.43-1.229
	c-0.856,0.135-1.374,0.281-1.894,0.289c-4.357,0.061-6.384,3.37-8.67,6.257c-5.484,6.921-11.27,13.559-17.866,19.46
	c-1.486,1.328-2.888,2.752-4.329,4.132C85.052,166.26,84.952,166.165,84.853,166.07"/>
<path fill-rule="evenodd" clip-rule="evenodd" d="M105.93,140.043c-0.379-1.13,1.142-1.563,0.961-2.623
	c0.164-0.068,0.329-0.138,0.493-0.205c-0.035-0.065-0.07-0.129-0.105-0.194c-0.127,0.135-0.253,0.271-0.381,0.409
	c-0.428,0.3-0.855,0.598-1.284,0.898c2.017-2.249,3.318-4.962,7.179-5.296c3.728-0.323,6.584,0.95,9.602,2.469
	c0.465,0.233,0.819,0.755,1.444,0.618c-0.005,0.226,0.122,0.318,0.332,0.322c0.039,0.147,0.065,0.333,0.249,0.095
	c-0.088-0.025-0.177-0.053-0.266-0.079c0.017-0.229-0.111-0.32-0.32-0.333c0.14-0.133-0.274-0.727,0.265-0.465
	c5.199,2.535,10.925,3.803,16.24,6.682c-1.173,0.47-2.055,0.1-2.892-0.233c-2.967-1.178-5.91-2.418-8.87-3.614
	c-0.546-0.221-1.128-0.35-1.696-0.521c-0.132-0.088-0.262-0.176-0.395-0.264c-0.13-0.286-0.367-0.36-0.658-0.327
	c-0.119-0.317-0.36-0.374-0.66-0.312c-0.044-0.075-0.09-0.151-0.134-0.23c-0.052,0.048-0.103,0.097-0.154,0.142
	c0.082,0.045,0.166,0.087,0.248,0.131c0.112,0.308,0.355,0.365,0.642,0.339c0.08,0.3,0.309,0.376,0.585,0.384
	c0.118,0.101,0.234,0.203,0.352,0.305c0.336,0.785-0.128,0.529-0.469,0.343c-1.324-0.723-2.594-1.563-3.966-2.175
	c-3.348-1.493-6.78-2.499-10.468-1.182c-1.197,0.428-2.196,1.062-3.034,2.047c-0.869,1.023-1.894,1.911-2.851,2.857L105.93,140.043z
	"/>
<path fill-rule="evenodd" clip-rule="evenodd" d="M155.765,83.071c-0.11,1.266-0.392,2.493-0.775,3.7
	c-1.446,0.295-2.339,1.413-3.298,2.356c-4.767,4.677-4.483,9.909-0.551,15.182c0.116,1.061-0.619,1.911-0.718,2.915
	c-0.881-2.338-2.216-4.447-3.429-6.607c-0.691-1.228-0.918-2.444-0.64-3.726c0.745-3.434,1.631-6.666,4.765-9.046
	c1.428-1.084,2.715-2.743,3.912-4.275C155.224,83.322,155.344,82.979,155.765,83.071"/>
<path fill-rule="evenodd" clip-rule="evenodd" d="M64.665,67.942c2.659-0.866,5.132-0.385,7.499-1.255
	c3.714-1.367,5.279-4.034,5.768-7.698c0.224-1.681,0.637-3.335,1.265-4.96v2.931c0.069,0.01,0.137,0.023,0.206,0.033
	c0.375-1.159,0.752-2.318,1.177-3.626c0.39,1.043-0.095,1.867-0.152,2.711c-0.112,1.658-0.441,3.3-0.686,4.939
	c-0.469,3.137-5.24,6.881-8.435,6.92C69.191,67.963,67.074,67.942,64.665,67.942"/>
<path fill-rule="evenodd" clip-rule="evenodd" d="M84.419,163.483c2.718-5.138,6.699-9.262,10.762-13.304
	c2.028-2.019,4.19-3.904,6.299-5.842c0.343-0.317,0.601-0.801,1.193-0.709l-0.016-0.016c-2.291,2.577-4.569,5.165-6.876,7.725
	c-3.401,3.774-6.822,7.526-10.236,11.289c-0.323,0.354-0.59,0.79-1.137,0.845L84.419,163.483z"/>
<path fill-rule="evenodd" clip-rule="evenodd" d="M71.494,133.52c0.277-5.204,0.169-10.446,1.575-15.541
	C73.373,123.241,72.983,128.434,71.494,133.52"/>
<path fill-rule="evenodd" clip-rule="evenodd" d="M70.164,68.763c-4.942,1.31-9.902,2.5-15.255,2.882
	C56.306,70.342,67.964,68.119,70.164,68.763"/>
<path fill-rule="evenodd" clip-rule="evenodd" d="M72.137,171.129v-14.88C72.855,161.204,73.642,166.161,72.137,171.129"/>
<path fill-rule="evenodd" clip-rule="evenodd" d="M166.392,49.159c4.314-1.41,8.629-2.819,13.197-4.311
	C178.814,46.015,168.601,49.344,166.392,49.159"/>
<path fill-rule="evenodd" clip-rule="evenodd" d="M83.319,32.837c-0.289,3.726-1.037,7.346-2.443,10.823
	c0.498-3.604,0.805-7.235,1.702-10.768C82.824,32.873,83.072,32.857,83.319,32.837"/>
<path fill-rule="evenodd" clip-rule="evenodd" d="M70.231,125.574c0.556,0.812,0.572,1.744,0.507,2.661
	c-0.202,2.867-0.441,5.732-0.675,8.597c-0.016,0.189-0.113,0.373-0.394,0.546c-0.484-3.872-0.256-7.728,0.278-11.574
	C70.042,125.726,70.135,125.649,70.231,125.574"/>
<path fill-rule="evenodd" clip-rule="evenodd" d="M83.319,32.837c-0.247,0.02-0.495,0.036-0.741,0.055
	c0.012-2.421,0.642-4.752,1.023-7.41C83.766,28.141,83.849,30.503,83.319,32.837"/>
<path fill-rule="evenodd" clip-rule="evenodd" d="M81.158,164.466c-1.088,2.014-2.25,3.978-3.749,5.723
	c0.896-2.139,1.634-4.377,3.76-5.712L81.158,164.466z"/>
<path fill-rule="evenodd" clip-rule="evenodd" d="M182.573,50.391c-0.418,0.164-0.84,0.153-1.264,0.03
	c1.063-0.867,1.399-2.414,2.948-3.096C184.041,48.667,182.719,49.225,182.573,50.391"/>
<path fill-rule="evenodd" clip-rule="evenodd" d="M73.356,180.438c-0.328-1.146,0.071-2.139,0.692-3.084
	c-0.101,1.052,1.083,2.385-0.715,3.063L73.356,180.438z"/>
<path fill-rule="evenodd" clip-rule="evenodd" d="M186.409,44.602c-0.081-1.014,0.374-1.759,1.216-2.253
	c0.181-0.106,0.639,0.038,0.579,0.368c-0.185,0.996-0.932,1.511-1.811,1.867L186.409,44.602z"/>
<path fill-rule="evenodd" clip-rule="evenodd" d="M28.117,80.762c0,0-0.011-0.045-0.009-0.042c0.686-0.856,1.645-0.901,2.635-0.848
	C29.939,80.38,29.205,81.075,28.117,80.762"/>
<path fill-rule="evenodd" clip-rule="evenodd" d="M105.919,140.029c-0.688,0.892-1.302,1.852-2.345,2.411
	c0.638-0.935,1.091-2.044,2.355-2.396L105.919,140.029z"/>
<path fill-rule="evenodd" clip-rule="evenodd" d="M109.703,28.566c-0.312,0.022-0.625,0.045-0.935,0.067
	c-0.312-0.479-0.832-0.851-0.784-2.049C108.718,27.431,109.211,28,109.703,28.566"/>
<path fill-rule="evenodd" clip-rule="evenodd" d="M88.476,8.285c0.676-1.364,1.371-0.649,2.25,0H88.476z"/>
<path fill-rule="evenodd" clip-rule="evenodd" d="M104.65,138.872c-0.105,0.877-0.837,1.105-1.369,1.549
	C103.738,139.905,104.194,139.388,104.65,138.872"/>
<path fill-rule="evenodd" clip-rule="evenodd" d="M102.673,143.628c-0.025-0.267,0.021-0.496,0.332-0.557
	c0.03-0.005,0.105,0.054,0.109,0.089c0.032,0.333-0.23,0.377-0.458,0.451C102.656,143.613,102.673,143.628,102.673,143.628"/>
<path fill-rule="evenodd" clip-rule="evenodd" d="M84.408,163.472c-0.02,0.051-0.038,0.103-0.056,0.154
	c0.022-0.047,0.045-0.095,0.067-0.142L84.408,163.472z"/>
<path fill-rule="evenodd" clip-rule="evenodd" d="M81.169,164.476c0.028-0.084,0.058-0.169,0.086-0.252
	c-0.032,0.079-0.065,0.161-0.097,0.242L81.169,164.476z"/>
<path fill-rule="evenodd" clip-rule="evenodd" d="M186.393,44.584c-0.03,0.027-0.06,0.052-0.09,0.078
	c0.035-0.019,0.071-0.041,0.106-0.06L186.393,44.584z"/>
<path fill-rule="evenodd" clip-rule="evenodd" d="M240.49,104.812c0.252,14.075-3.64,26.668-11.546,37.969
	c-3.492,4.992-7.981,8.955-14.089,10.374c-7.637,1.771-10.968-0.11-14.299-5.529c-5.813-9.449-8.405-19.744-7.392-30.881
	c0.866-9.483,2.451-18.805,5.914-27.723c2.658-6.846,6.158-13.159,11.893-17.965c4.657-3.902,9.936-5.449,15.887-3.701
	c3.768,1.108,5.856,4.177,7.646,7.375c2.813,5.033,4.046,10.594,4.94,16.221C240.184,95.618,240.562,100.325,240.49,104.812
	 M228.972,102.72c-0.024-4.489-0.078-8.997-0.592-13.477c-0.368-3.225-0.835-6.443-2.3-9.41c-0.552-1.12-1.305-2.09-2.587-2.259
	c-2.676-0.352-5.055,0.28-6.858,2.462c-1.564,1.897-2.77,4.01-3.677,6.284c-5.679,14.244-8.422,28.98-7.3,44.339
	c0.254,3.515,0.755,7.003,1.954,10.346c1.611,4.506,5.154,5.345,8.674,2.097c2.428-2.238,4.198-4.952,5.669-7.867
	C227.114,125.015,229.631,114.211,228.972,102.72"/>
<path fill-rule="evenodd" clip-rule="evenodd" d="M181.206,68.673c-1.057,0-3.01-0.005-4.962,0.004
	c-0.684,0.003-1.175,0.109-1.358,1c-1.683,8.217-4.182,16.273-4.785,24.699c-0.155,2.17-0.134,2.256,2.064,2.492
	c4.249,0.453,8.549,0.572,12.684,1.786c3.452,1.013,4.923,3.263,4.19,6.213c-0.548,2.202-2.192,3.305-4.437,3.048
	c-5.115-0.586-10.235-1.125-15.349-1.721c-0.888-0.103-1.174,0.242-1.461,1.048c-1.029,2.9-1.162,5.939-1.551,8.94
	c-1.379,10.655-1.825,21.389-2.699,32.089c-0.269,3.297-1.523,4.106-4.42,2.483c-4.025-2.253-5.999-5.891-5.988-10.437
	c0.02-6.896,0.684-13.757,1.388-20.609c0.676-6.581,1.264-13.178,2.236-19.715c1.25-8.401,2.831-16.754,4.718-25.043
	c0.431-1.899,0.806-3.813,1.139-5.733c0.988-5.67,2.535-7.359,8.247-8.405c7.459-1.371,14.98-1.437,22.503-0.606
	c2.404,0.267,3.578,1.322,3.751,2.948c0.19,1.772-1.042,3.485-3.126,4.221C190.135,68.74,186.118,68.734,181.206,68.673"/>
<path fill-rule="evenodd" clip-rule="evenodd" d="M242.286,135.136c0.018-9.506,0.852-20.435,1.446-31.376
	c0.461-8.478,2.282-16.731,3.721-25.054c0.423-2.449,0.886-4.9,1.48-7.316c0.799-3.236,2.123-4.094,5.357-3.665
	c1.556,0.205,3.096,0.483,4.509,1.248c2.114,1.145,3.226,3.275,2.709,5.574c-2.736,12.165-4.258,24.538-6.404,36.805
	c-1.17,6.67-2.532,13.327-3.239,20.05c-0.554,5.263,0.016,10.609,0.458,15.904c0.074,0.893,0.56,1.399,1.545,1.572
	c4.635,0.807,9.255,1.699,13.882,2.552c0.95,0.177,2.057,0.157,1.99,1.575c-0.063,1.375-0.415,2.644-1.98,2.965
	c-1.429,0.295-2.89,0.447-4.338,0.636c-2.687,0.345-5.376,0.674-8.065,1c-1.742,0.211-3.363,0.762-4.909,1.587
	c-0.663,0.354-1.364,0.678-2.087,0.881c-2.107,0.598-3.302,0.018-4.1-2.045c-1.249-3.226-1.522-6.642-1.75-10.046
	C242.253,144.194,242.141,140.397,242.286,135.136"/>
<path fill-rule="evenodd" clip-rule="evenodd" d="M204.373,72.014c-5.195,6.449-8.672,13.763-10.948,21.687
	c-0.043,0.141-0.187,0.254-0.341,0.455c-2.708-3.621-6.772-4.762-10.805-5.807c-1.61-0.418-1.737-1.047-1.377-2.422
	c0.81-3.084,1.54-6.191,2.209-9.309c0.223-1.049,0.598-1.383,1.714-1.306c4.502,0.307,8.994,0.231,13.427-0.77
	c2.194-0.496,4.222-1.319,5.883-2.89C204.213,71.774,204.293,71.894,204.373,72.014"/>
<path fill-rule="evenodd" clip-rule="evenodd" d="M152.36,99.908c-0.054,0.785-0.082,1.578-0.576,2.251
	c-0.332-0.617-0.59-1.291-1.008-1.842c-1.01-1.331-1.117-2.763-1.086-4.407c0.068-3.533,2.843-4.807,5.013-6.63
	c-0.708,3.271-1.036,6.618-1.955,9.844c-1.794-1.349-1.564-3.362-1.643-5.342C150.211,96.166,150.549,98.201,152.36,99.908"/>
<path fill-rule="evenodd" clip-rule="evenodd" d="M204.812,71.589c-0.147,0.142-0.294,0.283-0.439,0.425
	c-0.079-0.12-0.16-0.24-0.239-0.363c0.138-0.144,0.274-0.291,0.411-0.436C204.634,71.342,204.722,71.465,204.812,71.589"/>
<path fill-rule="evenodd" clip-rule="evenodd" d="M146.864,203.346c-0.169-0.096-0.336-0.187-0.504-0.281
	c0.236-0.379,0.503-0.118,0.761-0.036C147.036,203.131,146.95,203.238,146.864,203.346"/>
<path fill-rule="evenodd" clip-rule="evenodd" d="M144.907,201.41c0.108,0.167,0.562,0.208,0.275,0.501
	c-0.183,0.187-0.44,0.006-0.57-0.231C144.71,201.591,144.809,201.5,144.907,201.41"/>
<path fill-rule="evenodd" clip-rule="evenodd" d="M113.725,30.235c0.086,0.398,0.173,0.795,0.274,1.26
	c-0.51-0.324-0.602-0.764-0.579-1.257l-0.017,0.018c0.115,0.001,0.229,0.002,0.343,0.004L113.725,30.235z"/>
<path fill-rule="evenodd" clip-rule="evenodd" d="M125.474,48.485c-0.286-0.076-0.629-0.065-0.726-0.472
	c0.419-0.081,0.531,0.253,0.715,0.484L125.474,48.485z"/>
<path fill-rule="evenodd" clip-rule="evenodd" d="M116.99,34.484c0.059,0.067,0.124,0.131,0.175,0.207
	c0.013,0.018-0.019,0.068-0.03,0.105c-0.043-0.109-0.086-0.218-0.129-0.328L116.99,34.484z"/>
<path fill-rule="evenodd" clip-rule="evenodd" d="M113.747,30.261c-0.114-0.002-0.229-0.004-0.344-0.005
	c0.071-0.17,0.14-0.338,0.21-0.507C113.808,29.88,113.818,30.06,113.747,30.261"/>
<path fill-rule="evenodd" clip-rule="evenodd" d="M116.032,38.706c0.084,0.097,0.169,0.197,0.253,0.294
	c-0.055,0.044-0.11,0.09-0.165,0.135c-0.037-0.135-0.074-0.272-0.112-0.407L116.032,38.706z"/>
<path fill-rule="evenodd" clip-rule="evenodd" d="M106.898,137.429c0.127-0.137,0.254-0.272,0.381-0.409
	c0.035,0.066,0.07,0.131,0.104,0.195c-0.164,0.068-0.328,0.136-0.493,0.205L106.898,137.429z"/>
<path fill-rule="evenodd" clip-rule="evenodd" d="M125.77,137.45c-0.287,0.025-0.531-0.031-0.642-0.339l0.042-0.042
	c0.298-0.062,0.539-0.006,0.657,0.313L125.77,137.45z"/>
<path fill-rule="evenodd" clip-rule="evenodd" d="M125.827,137.381c0.292-0.034,0.528,0.041,0.659,0.327
	c-0.043,0.045-0.088,0.086-0.134,0.127c-0.274-0.009-0.502-0.085-0.582-0.385L125.827,137.381z"/>
<path fill-rule="evenodd" clip-rule="evenodd" d="M125.128,137.111c-0.083-0.044-0.167-0.086-0.249-0.131
	c0.051-0.046,0.103-0.094,0.154-0.141c0.045,0.079,0.091,0.154,0.135,0.229C125.17,137.069,125.128,137.111,125.128,137.111"/>
<path fill-rule="evenodd" clip-rule="evenodd" d="M126.486,137.708c0.132,0.088,0.263,0.177,0.395,0.264
	c-0.058,0.054-0.116,0.109-0.174,0.167c-0.118-0.102-0.235-0.205-0.352-0.305C126.399,137.794,126.444,137.753,126.486,137.708"/>
<path fill-rule="evenodd" clip-rule="evenodd" d="M124.153,136.457c0.089,0.026,0.178,0.055,0.267,0.079
	c-0.185,0.238-0.211,0.053-0.25-0.095L124.153,136.457z"/>
<path fill-rule="evenodd" clip-rule="evenodd" d="M123.833,136.124c0.209,0.014,0.337,0.104,0.32,0.333l0.016-0.016
	c-0.209-0.005-0.336-0.096-0.331-0.322L123.833,136.124z"/>
<path fill-rule="evenodd" clip-rule="evenodd" d="M214.742,133.801c-1.219-16.826,1.941-32.356,9.106-47.122
	c1.05,3.49,1.071,7.044,1.216,10.569c0.142,3.412,0.069,6.832,0.069,10.249c-0.002,7.117-2.804,13.366-6.089,19.451
	C217.837,129.185,216.508,131.354,214.742,133.801"/>
<path fill="#662482" d="M232.165,197.273c-0.163,1.452-0.871,3.105,0.429,4.266c1.689,1.514,1.638-1.428,1.791-2.665
	c0.131-0.938,0.644-4.88-0.599-4.847l0.26-0.245C232.47,194.517,232.352,195.466,232.165,197.273"/>
<path fill="#662482" d="M236.696,195.949c0.215,1.169,0.315,5.087,2.451,4.602c1.302-0.298,1.025-5.016,1.187-6.324
	c0.118-0.868,0.594-1.942-0.147-2.785c-0.588-0.663-1.828-0.92-2.279,0.182l0.779-0.484
	C236.879,192.113,236.369,194.183,236.696,195.949"/>
<path fill="#662482" d="M243.584,196.113c0.065,1.069-0.452,2.459,0.463,3.252c0.844,0.742,1.907,0.319,2.55-0.545
	c1.208-1.631,1.329-4.307,1.401-6.366c0.031-0.872,0.047-2.333-0.979-2.771c-0.568-0.244-2.547,0.347-2.759,0.877l0.146,0.004
	c0.054-0.073,0.111-0.139,0.179-0.218c0.157-0.038,0.213,0.039,0.182,0.23l-0.36-0.013
	C242.79,192.406,243.448,193.846,243.584,196.113"/>
<path fill="#662482" d="M251.583,193.108c-1.901,1.524-2.085,9.726,1.389,7.801c1.839-1.01,1.709-2.719,1.734-4.686
	c0.02-2.208-1.225-3.185-2.674-3.388l-0.268,0.498C251.793,193.149,251.742,193.073,251.583,193.108"/>
<path fill="#662482" d="M249.045,236.318c-1.275-0.308-2.918-1.215-4.277-1.133c-0.273-3.916,1.32-7.543,1.069-11.333
	c-0.275-4.145,1.324-6.601,4.779-8.534c1.221-0.685,3.188-1.412,3.881-2.672c0.821-1.484,1.665-3.96,1.508-5.726
	c-0.195-2.231-1.689-2.489-3.5-3.103c-1.785-0.6-3.682-1.071-5.73-1.004c-2.093,0.073-4.648,1.632-1.589,2.726
	c1.869,0.671,3.782,1.07,5.723,1.504c0.006,0.717-0.271,1.409-0.333,2.194c-1.475-0.158-2.974,0.91-4.35,1.113
	c-1.973,0.287-2.669-0.801-3.988-2.037c-1.013-0.943-2.581-1.868-3.914-2.221c-1.068-0.288-4.367-1.227-5.259-0.355
	c0.04,0.063,0.069,0.142,0.091,0.227c0.103-0.126,0.217-0.232,0.375-0.276l-0.273,0.754c-0.065-0.129-0.072-0.313-0.102-0.478
	c-0.814,1.017,0.154,4.25,0.443,5.06c0.633,1.671,1.672,2.242,2.748,3.568c2.219,2.772,1.269,7.93,0.835,11.256
	c-0.263,2.082,0.065,4.249-0.202,6.332c-0.329,2.532-1.675,2.146-3.588,1.654c-1.554-0.398-3.443-1.568-5.001-0.345
	c-1.354,1.084-1.814,3.339-2.035,4.891c-0.235,1.612-1.469,4.008,0.462,4.837c1.79,0.768,4.02,0.947,5.986,1.006
	c1.161,0.036,1.88-0.208,1.994,1.093c0.063,0.706-0.326,2.132-0.354,3.023c-0.033,0.991-0.189,2.052-0.1,3.038
	c0.11,1.355,0.498,1.229,1.705,1.633c0.985,0.327,1.816,0.552,2.774,0.78c0.62,0.144,2.261,1.129,2.808,1.062
	c1.236-0.137,1.577-3.598,1.846-4.711c0.219-0.901,0.325-1.758,0.359-2.771c0.039-1.451-0.134-1.726,1.02-2.309
	c2.019-1.016,3.691,0.369,5.598,0.75c0.526,0.104,1.214,0.049,1.734,0.011c0.394-2.718,1.47-5.509,1.272-8.25
	C252.098,236.874,250.528,236.679,249.045,236.318"/>
<path fill="#662482" d="M271.174,203.475c-0.125-1.841-0.706-3.665-1.04-5.414c-0.31-1.612-1.146-3.271-1.729-4.816
	c-0.619-1.618-1.67-3.739-2.632-5.102c-0.87-1.245-10.773-8.958-11.779-9.067c-2.106-0.224-4.173-0.657-6.295-0.964
	c-1.911-0.276-9.881-0.458-11.89-0.073c-3.692,0.709-7.305,2.271-10.517,4.425c-3.549,2.375-4.542,5.302-6.043,8.996
	c-0.734,1.822-1.64,3.579-2.315,5.377c-0.865,2.302-1.038,3.695-0.893,6.135c0.145,2.032-0.289,4.111,0.358,6.042
	c0.671,1.969,1,3.884,1.589,5.886c0.441,1.508,1.212,3.938,2.301,5.215c1.097,1.275,2.692,2.158,3.742,3.349
	c1.235,1.405,2.584,1.811,4.104,2.797c1.574,1.026,1.959,2.256,4.025,2.345l0.76,0.023l-0.015,0.43
	c0.047-1.439,1.669-7.822,1.345-7.987c-7.708-4.068-10.566-14.028-10.233-16.377c2.038-14.236,3.508-18.229,18.167-20.489
	c14.578-2.244,19.432,15.742,19.685,17.45c0.282,1.958,0.836,3.709,0.374,5.648c-0.751,3.135-5.403,14.497-13.726,14.909
	c-0.18,1.353-0.718,6.365-0.135,7.116c1.014,1.308,5.492-0.742,6.751-1.063c1.887-0.487,5-1.464,6.501-2.962
	c1.499-1.506,3.249-3.569,4.644-5.298C268.59,217.137,271.311,205.777,271.174,203.475"/>
<rect x="-65.957" y="-50.636" fill="none" width="564.219" height="363.636"/>
<g>
	<path d="M336.549,110.4h-8.859V51.619h25.219v8.906h-16.359v16.031h11.953v8.906h-11.953V110.4z"/>
	<path d="M372.971,51.666c4.938,0,8.562,1.359,10.875,4.078c2.031,2.375,3.047,5.688,3.047,9.938v8.531
		c0,4.156-1.578,7.672-4.734,10.547l6.562,25.641h-9.581l-5.372-22.125c-0.25,0-0.516,0-0.797,0h-5.109V110.4h-8.859V51.666H372.971
		z M378.268,65.822c0-3.406-1.688-5.109-5.063-5.109h-5.344V79.51h5.344c1.406,0,2.602-0.5,3.586-1.5
		c0.984-1,1.477-2.203,1.477-3.609V65.822z"/>
	<path d="M396.313,110.4V51.619h25.219v8.906h-16.359v16.031h11.953v8.906h-11.953v16.031h16.359v8.906H396.313z"/>
	<path d="M437.572,51.619l11.757,39.505V51.619h8.859V110.4h-9.516L436.485,72.76V110.4h-8.859V51.619H437.572z"/>
	<path d="M474.734,60.572h-9.422v-8.906h27.656v8.906h-9.375V110.4h-8.859V60.572z"/>
	<path d="M500.093,110.4V51.619h25.219v8.906h-16.359v16.031h11.953v8.906h-11.953v16.031h16.359v8.906H500.093z"/>
	<path d="M355.534,164.338c0,3.875-1.359,7.188-4.078,9.938s-6,4.125-9.844,4.125H327.69v-58.781h13.922
		c3.875,0,7.164,1.375,9.867,4.125c2.703,2.75,4.055,6.047,4.055,9.891V164.338z M336.549,169.635h5.344
		c1.406,0,2.594-0.508,3.563-1.523c0.968-1.016,1.453-2.211,1.453-3.586v-30.75c0-1.406-0.492-2.609-1.477-3.609
		c-0.984-1-2.164-1.5-3.539-1.5h-5.344V169.635z"/>
	<path d="M363.313,178.4v-58.781h25.219v8.906h-16.359v16.031h11.953v8.906h-11.953v16.031h16.359v8.906H363.313z"/>
	<path d="M414.734,118.916c3.906,0,7.226,1.375,9.961,4.125c2.734,2.75,4.102,6.063,4.102,9.938v32.063
		c0,3.906-1.375,7.227-4.125,9.961c-2.75,2.734-6.063,4.102-9.938,4.102c-3.907,0-7.219-1.375-9.938-4.125s-4.078-6.063-4.078-9.938
		v-32.063c0-3.906,1.375-7.226,4.125-9.961C407.593,120.283,410.89,118.916,414.734,118.916z M419.562,132.791
		c0-1.406-0.492-2.602-1.477-3.586s-2.18-1.477-3.586-1.477s-2.609,0.492-3.609,1.477c-1,0.984-1.5,2.18-1.5,3.586v32.156
		c0,1.406,0.5,2.602,1.5,3.586c1,0.984,2.203,1.477,3.609,1.477s2.602-0.492,3.586-1.477s1.477-2.18,1.477-3.586V132.791z"/>
	<path d="M450.592,119.666c4.938,0,8.562,1.359,10.875,4.078c2.031,2.375,3.047,5.688,3.047,9.938v8.531
		c0,4.156-1.578,7.672-4.734,10.547l6.562,25.641h-9.581l-5.372-22.125c-0.25,0-0.516,0-0.797,0h-5.109V178.4h-8.859v-58.734
		H450.592z M455.889,133.822c0-3.406-1.688-5.109-5.063-5.109h-5.344v18.797h5.344c1.406,0,2.602-0.5,3.586-1.5
		s1.477-2.203,1.477-3.609V133.822z"/>
	<path d="M486.498,179.15c-3.907,0-7.227-1.375-9.961-4.125c-2.735-2.75-4.102-6.047-4.102-9.891v-32.063
		c0-3.906,1.375-7.226,4.125-9.961c2.75-2.734,6.063-4.102,9.938-4.102c3.906,0,7.219,1.375,9.938,4.125
		c2.719,2.75,4.078,6.063,4.078,9.938v6.703h-9.188v-6.891c0-1.406-0.5-2.609-1.5-3.609c-1-1-2.203-1.5-3.609-1.5
		s-2.602,0.5-3.586,1.5c-0.984,1-1.477,2.203-1.477,3.609v32.156c0,1.406,0.492,2.602,1.477,3.586s2.18,1.477,3.586,1.477
		s2.609-0.49,3.609-1.473c1-0.98,1.5-2.174,1.5-3.576V153.51h-4.922v-8.906h14.109v20.531c0,3.906-1.375,7.219-4.125,9.938
		C493.638,177.791,490.341,179.15,486.498,179.15z"/>
	<path d="M517.984,164.9l-2.153,13.5h-9.225l9.985-58.734h12.187l9.843,58.734h-9.314l-2.073-13.5H517.984z M522.638,133.119
		l-3.281,23.156h6.563L522.638,133.119z"/>
	<path d="M556.021,119.619l11.757,39.505v-39.505h8.859V178.4h-9.516l-12.188-37.641V178.4h-8.859v-58.781H556.021z"/>
	<path d="M593.417,178.4h-8.859v-58.734h8.859V178.4z"/>
	<path d="M626.651,119.666v8.906l-16.313,41.016h16.313v8.813h-25.875v-8.868l16.359-41.007l-16.359,0.047v-8.906H626.651z"/>
	<path d="M644.122,164.9l-2.153,13.5h-9.225l9.985-58.734h12.187l9.843,58.734h-9.314l-2.073-13.5H644.122z M648.776,133.119
		l-3.281,23.156h6.563L648.776,133.119z"/>
	<path d="M684.916,179.15c-3.907,0-7.227-1.367-9.961-4.102c-2.735-2.734-4.102-6.039-4.102-9.914v-32.063
		c0-3.906,1.375-7.226,4.125-9.961c2.75-2.734,6.063-4.102,9.938-4.102c3.906,0,7.219,1.375,9.938,4.125
		c2.719,2.75,4.078,6.063,4.078,9.938v6.703h-9.188v-6.891c0-1.406-0.5-2.609-1.5-3.609c-1-1-2.203-1.5-3.609-1.5
		s-2.602,0.5-3.586,1.5c-0.984,1-1.477,2.203-1.477,3.609v32.156c0,1.406,0.492,2.602,1.477,3.586s2.18,1.477,3.586,1.477
		s2.609-0.492,3.609-1.477c1-0.984,1.5-2.18,1.5-3.586v-8.109h9.188v8.203c0,3.906-1.375,7.219-4.125,9.938
		C692.057,177.791,688.76,179.15,684.916,179.15z"/>
	<path d="M715.055,178.4h-8.859v-58.734h8.859V178.4z"/>
	<path d="M736.899,118.916c3.906,0,7.226,1.375,9.961,4.125c2.734,2.75,4.102,6.063,4.102,9.938v32.063
		c0,3.906-1.375,7.227-4.125,9.961c-2.75,2.734-6.063,4.102-9.938,4.102c-3.907,0-7.219-1.375-9.938-4.125s-4.078-6.063-4.078-9.938
		v-32.063c0-3.906,1.375-7.226,4.125-9.961C729.758,120.283,733.055,118.916,736.899,118.916z M741.727,132.791
		c0-1.406-0.492-2.602-1.477-3.586s-2.18-1.477-3.586-1.477s-2.609,0.492-3.609,1.477c-1,0.984-1.5,2.18-1.5,3.586v32.156
		c0,1.406,0.5,2.602,1.5,3.586c1,0.984,2.203,1.477,3.609,1.477s2.602-0.492,3.586-1.477s1.477-2.18,1.477-3.586V132.791z"/>
	<path d="M768.688,119.619l11.757,39.505v-39.505h8.859V178.4h-9.516l-12.188-37.641V178.4h-8.859v-58.781H768.688z"/>
	<path d="M797.225,178.4v-58.781h25.219v8.906h-16.359v16.031h11.953v8.906h-11.953v16.031h16.359v8.906H797.225z"/>
	<path d="M857.834,163.775c0.063,4.094-1,7.594-3.188,10.5c-1.438,1.969-3.469,3.359-6.094,4.172
		c-1.406,0.438-3.047,0.656-4.922,0.656c-3.469,0-6.344-0.859-8.625-2.578c-1.906-1.406-3.415-3.32-4.523-5.742
		c-1.109-2.422-1.758-5.195-1.945-8.32l8.438-0.609c0.375,3.424,1.281,5.905,2.719,7.444c1.062,1.162,2.281,1.712,3.656,1.649
		c1.938-0.063,3.484-1.017,4.641-2.862c0.593-0.907,0.891-2.204,0.891-3.894c0-2.439-1.109-4.864-3.328-7.272
		c-1.75-1.657-4.375-4.144-7.875-7.46c-2.938-2.846-5.016-5.396-6.234-7.647c-1.313-2.533-1.969-5.286-1.969-8.257
		c0-5.349,1.797-9.399,5.391-12.152c2.219-1.657,4.969-2.486,8.25-2.486c3.156,0,5.859,0.703,8.109,2.109
		c1.75,1.094,3.164,2.625,4.242,4.594s1.727,4.235,1.945,6.797l-8.484,1.547c-0.25-2.406-0.938-4.281-2.063-5.625
		c-0.813-0.968-1.985-1.453-3.516-1.453c-1.625,0-2.859,0.719-3.703,2.156c-0.688,1.156-1.031,2.594-1.031,4.313
		c0,2.688,1.156,5.422,3.469,8.203c0.875,1.063,2.187,2.313,3.938,3.75c2.063,1.719,3.422,2.922,4.078,3.609
		c2.187,2.188,3.875,4.344,5.063,6.469c0.563,1,1.015,1.922,1.359,2.766C857.365,160.244,857.803,162.119,857.834,163.775z"/>
	<path d="M327.69,246.4v-58.781h25.219v8.906h-16.359v16.031h11.953v8.906h-11.953v16.031h16.359v8.906H327.69z"/>
	<path d="M368.948,187.619l11.757,39.505v-39.505h8.859V246.4h-9.516l-12.188-37.641V246.4h-8.859v-58.781H368.948z"/>
	<path d="M425.891,246.4H401.75v-58.734h8.859v49.922h15.281V246.4z"/>
	<path d="M446,247.057c-3.907,0-7.219-1.359-9.938-4.078s-4.078-6.016-4.078-9.891v-45.422h8.672v45.328
		c0,1.406,0.5,2.602,1.5,3.586c1,0.984,2.203,1.477,3.609,1.477s2.602-0.492,3.586-1.477s1.477-2.18,1.477-3.586v-45.328h9.234
		v45.422c0,3.938-1.375,7.25-4.125,9.938C453.187,245.713,449.874,247.057,446,247.057z"/>
	<path d="M481.858,247.15c-3.907,0-7.227-1.367-9.961-4.102c-2.735-2.734-4.102-6.039-4.102-9.914v-32.063
		c0-3.906,1.375-7.227,4.125-9.961c2.75-2.734,6.063-4.102,9.938-4.102c3.906,0,7.219,1.375,9.938,4.125s4.078,6.063,4.078,9.938
		v6.703h-9.188v-6.891c0-1.406-0.5-2.609-1.5-3.609c-1-1-2.203-1.5-3.609-1.5s-2.602,0.5-3.586,1.5s-1.477,2.203-1.477,3.609v32.156
		c0,1.406,0.492,2.602,1.477,3.586s2.18,1.477,3.586,1.477s2.609-0.492,3.609-1.477c1-0.984,1.5-2.18,1.5-3.586v-8.109h9.188v8.203
		c0,3.906-1.375,7.219-4.125,9.938C488.999,245.791,485.702,247.15,481.858,247.15z"/>
	<path d="M511.998,221.51V246.4h-8.859v-58.734h8.859v24.938h10.688v-24.938h8.859V246.4h-8.859V221.51H511.998z"/>
	<path d="M550.328,232.9l-2.153,13.5h-9.225l9.985-58.734h12.187l9.843,58.734h-9.314l-2.073-13.5H550.328z M554.981,201.119
		l-3.281,23.156h6.563L554.981,201.119z"/>
</g>
</svg>
